HIERARCHY
ROOT Hips
{
  OFFSET 50.3712 85.5249 10.8116
  CHANNELS 6 Xposition Yposition Zposition Zrotation Xrotation Yrotation
  JOINT spine
  {
    OFFSET 0 6.3926 0.367606
    CHANNELS 3 Zrotation Xrotation Yrotation
    JOINT spine1
    {
      OFFSET 0 9.17611 0
      CHANNELS 3 Zrotation Xrotation Yrotation
      JOINT spine2
      {
        OFFSET 0 8.79238 0
        CHANNELS 3 Zrotation Xrotation Yrotation
        JOINT Neck
        {
          OFFSET 0 22.5737 1.07624
          CHANNELS 3 Zrotation Xrotation Yrotation
          JOINT Head
          {
            OFFSET 0 6.82011 0
            CHANNELS 3 Zrotation Xrotation Yrotation
            End Site
            {
              OFFSET 0 16.5085 -5.44427
            }
          }
        }
        JOINT RightShoulder
        {
          OFFSET -3.70221 9.49509 -0.515508
          CHANNELS 3 Zrotation Xrotation Yrotation
          JOINT RightArm
          {
            OFFSET 0 12.4537 0
            CHANNELS 3 Zrotation Xrotation Yrotation
            JOINT RightArmRoll
            {
              OFFSET 0 6.28686 0
              CHANNELS 3 Zrotation Xrotation Yrotation
              JOINT RightForeArm
              {
                OFFSET 0 18.3114 0
                CHANNELS 3 Zrotation Xrotation Yrotation
                JOINT RightForeArmRoll
                {
                  OFFSET 0 7.05482 0
                  CHANNELS 3 Zrotation Xrotation Yrotation
                  JOINT RightHand
                  {
                    OFFSET 0 14.1575 0
                    CHANNELS 3 Zrotation Xrotation Yrotation
                    End Site
                    {
                      OFFSET 0 0 0
                    }
                  }
                }
              }
            }
          }
        }
        JOINT LeftShoulder
        {
          OFFSET 3.70221 9.49509 -0.515508
          CHANNELS 3 Zrotation Xrotation Yrotation
          JOINT LeftArm
          {
            OFFSET 0 12.4537 0
            CHANNELS 3 Zrotation Xrotation Yrotation
            JOINT LeftArmRoll
            {
              OFFSET 0 6.28685 0
              CHANNELS 3 Zrotation Xrotation Yrotation
              JOINT LeftForeArm
              {
                OFFSET 0 18.3114 0
                CHANNELS 3 Zrotation Xrotation Yrotation
                JOINT LeftForeArmRoll
                {
                  OFFSET 0 7.05482 0
                  CHANNELS 3 Zrotation Xrotation Yrotation
                  JOINT LeftHand
                  {
                    OFFSET 0 14.1575 0
                    CHANNELS 3 Zrotation Xrotation Yrotation
                    End Site
                    {
                      OFFSET 0 0 0
                    }
                  }
                }
              }
            }
          }
        }
      }
    }
  }
  JOINT RightUpLeg
  {
    OFFSET -5.66616 -1.03903 -0.87161
    CHANNELS 3 Zrotation Xrotation Yrotation
    JOINT RightUpLegRoll
    {
      OFFSET 0 16.6005 0
      CHANNELS 3 Zrotation Xrotation Yrotation
      JOINT RightLeg
      {
        OFFSET 0 -20.5572 0
        CHANNELS 3 Zrotation Xrotation Yrotation
        JOINT RightLegRoll
        {
          OFFSET 0 20.6244 0
          CHANNELS 3 Zrotation Xrotation Yrotation
          JOINT RightFoot
          {
            OFFSET 0 17.1664 0
            CHANNELS 3 Zrotation Xrotation Yrotation
            JOINT RightToeBase
            {
              OFFSET 0 14.3502 0
              CHANNELS 3 Zrotation Xrotation Yrotation
              End Site
              {
                OFFSET 0.00608252 6.94971 -0.801061
              }
            }
          }
        }
      }
    }
  }
  JOINT LeftUpLeg
  {
    OFFSET 5.66616 -1.03903 -0.87161
    CHANNELS 3 Zrotation Xrotation Yrotation
    JOINT LeftUpLegRoll
    {
      OFFSET 0 16.6006 0
      CHANNELS 3 Zrotation Xrotation Yrotation
      JOINT LeftLeg
      {
        OFFSET 0 20.5571 0
        CHANNELS 3 Zrotation Xrotation Yrotation
        JOINT LeftLegRoll
        {
          OFFSET 0 20.8151 0
          CHANNELS 3 Zrotation Xrotation Yrotation
          JOINT LeftFoot
          {
            OFFSET 0 16.9757 0
            CHANNELS 3 Zrotation Xrotation Yrotation
            JOINT LeftToeBase
            {
              OFFSET 0 14.3502 0
              CHANNELS 3 Zrotation Xrotation Yrotation
              End Site
              {
                OFFSET -0.0272592 6.9497 -0.801061
              }
            }
          }
        }
      }
    }
  }
}
MOTION
Frames: 5
Frame Time: 0.00208333
52.4181 85.5363 10.9084 -0.892796 -1.44604 -2.79426 -0.498954 -1.55709 -0.209287 -1.01586 0.894186 -0.379697 -1.01191 2.53909 -0.362857 7.58879 11.8452 -0.751209 -4.60478 4.2872 1.39496 64.2307 -1.80176 -1.6332 107.767 17.1586 1.87951 -6.778e-006 2.31419e-007 -5.67142e-006 15.3682 7.23116 -1.28501 -2.37225e-006 -1.5087e-006 -3 8.02895 -4.95142 0.697699 -54.8349 -1.49138 0.46097 -112.454 15.4119 2.7379 4.8511e-006 1.49237e-006 4.37307e-006 -12.1033 8.24192 1.40723 -3.49925e-006 -5.41718e-006 3.0032 -8.02888 -4.95142 -0.697677 178.348 0.891704 0.111683 180 7.01571e-015 179.032 175.587 6.95197 179.84 -2.4583e-006 1.70791e-006 0.0820179 -18.1245 67.5422 19.1712 8.13588 25.2611 -3.50858 -177.536 -0.636363 1.90099 4.54188e-006 -4.6773e-006 -1.06238 -0.952531 -9.28622 0.46418 4.12324e-006 2.73712e-007 -0.212781 21.2244 71.001 -22.3977 -8.14164 25.494 3.11675 
52.4154 85.5293 10.9146 -0.894415 -1.42667 -2.79606 -0.498917 -1.557 -0.208561 -1.01464 0.894051 -0.377343 -1.01072 2.53895 -0.360522 7.59206 11.8261 -0.752027 -4.60581 4.28913 1.39343 64.2351 -1.8174 -1.64234 107.77 17.1689 1.8589 -6.778e-006 2.31419e-007 -5.67142e-006 15.3758 7.24763 -1.28754 -2.37225e-006 -1.5087e-006 -3 8.02895 -4.95142 0.697699 -54.8331 -1.50243 0.468166 -112.467 15.4304 2.76749 4.8511e-006 1.49237e-006 4.37307e-006 -12.1111 8.27271 1.4113 -3.49925e-006 -5.41718e-006 3.0032 -8.02888 -4.95142 -0.697677 178.357 0.926927 0.102112 180 7.01571e-015 179.032 175.595 6.97666 179.839 -2.4583e-006 1.70791e-006 0.0818582 -18.118 67.5333 19.1636 8.13774 25.2907 -3.53141 -177.536 -0.5928 1.90233 4.54188e-006 -4.6773e-006 -1.06245 -0.951289 -9.32898 0.464376 4.12324e-006 2.73712e-007 -0.213753 21.2458 71.0214 -22.4204 -8.14156 25.4928 3.1184 
52.4185 85.5393 10.9098 -0.89618 -1.40791 -2.79749 -0.498929 -1.55685 -0.207873 -1.01346 0.894036 -0.375023 -1.00957 2.53894 -0.358221 7.59583 11.8069 -0.753052 -4.60686 4.29126 1.39185 64.2398 -1.83368 -1.65186 107.772 17.1794 1.83945 -6.778e-006 2.31419e-007 -5.67142e-006 15.3829 7.26301 -1.28994 -2.37225e-006 -1.5087e-006 -3 8.02895 -4.95142 0.697699 -54.8314 -1.51355 0.475407 -112.479 15.4492 2.79664 4.8511e-006 1.49237e-006 4.37307e-006 -12.1185 8.30311 1.41531 -3.49925e-006 -5.41718e-006 3.0032 -8.02888 -4.95142 -0.697677 178.366 0.961118 0.092749 180 7.01571e-015 179.032 175.604 7.00096 179.838 -2.4583e-006 1.70791e-006 0.0816207 -18.1096 67.524 19.1556 8.13968 25.3212 -3.555 -177.535 -0.550577 1.90329 4.54188e-006 -4.6773e-006 -1.06254 -0.950321 -9.37046 0.464497 4.12324e-006 2.73712e-007 -0.214675 21.2667 71.0413 -22.4427 -8.14147 25.4915 3.12009 
52.3913 85.5319 10.8902 -0.898048 -1.38957 -2.79868 -0.498978 -1.55666 -0.207212 -1.01231 0.894105 -0.372727 -1.00845 2.53901 -0.355943 7.59995 11.7879 -0.754223 -4.60791 4.29353 1.39022 64.2447 -1.85041 -1.66166 107.773 17.1899 1.82081 -6.778e-006 2.31419e-007 -5.67142e-006 15.3897 7.27764 -1.29226 -2.37225e-006 -1.5087e-006 -3 8.02895 -4.95142 0.697699 -54.8297 -1.52471 0.48268 -112.491 15.4683 2.82548 4.8511e-006 1.49237e-006 4.37307e-006 -12.1257 8.33323 1.41928 -3.49925e-006 -5.41718e-006 3.0032 -8.02888 -4.95142 -0.697677 178.375 0.994586 0.0835314 180 7.01571e-015 179.032 175.612 7.02503 179.836 -2.4583e-006 1.70791e-006 0.0813286 -18.0998 67.5143 19.1473 8.1417 25.3524 -3.57913 -177.535 -0.509291 1.90396 4.54188e-006 -4.6773e-006 -1.06265 -0.949542 -9.41104 0.464566 4.12324e-006 2.73712e-007 -0.215562 21.2874 71.0609 -22.4647 -8.14139 25.4903 3.12182 
52.4012 85.5233 10.8926 -0.899975 -1.37147 -2.79972 -0.499046 -1.55644 -0.206566 -1.01118 0.894222 -0.370445 -1.00734 2.53912 -0.353679 7.60427 11.7688 -0.755476 -4.60898 4.29589 1.38857 64.2498 -1.86738 -1.67161 107.775 17.2004 1.80263 -6.778e-006 2.31419e-007 -5.67142e-006 15.3964 7.29183 -1.29453 -2.37225e-006 -1.5087e-006 -3 8.02895 -4.95142 0.697699 -54.828 -1.5359 0.489973 -112.503 15.4876 2.85414 4.8511e-006 1.49237e-006 4.37307e-006 -12.1327 8.3632 1.42322 -3.49925e-006 -5.41718e-006 3.0032 -8.02888 -4.95142 -0.697677 178.384 1.02764 0.0743968 180 7.01571e-015 179.032 175.62 7.04892 179.835 -2.4583e-006 1.70791e-006 0.0810053 -18.0892 67.5045 19.1389 8.14378 25.384 -3.60358 -177.534 -0.468541 1.90448 4.54188e-006 -4.6773e-006 -1.06278 -0.948873 -9.45111 0.464605 4.12324e-006 2.73712e-007 -0.21643 21.3079 71.0804 -22.4865 -8.1413 25.489 3.12356 
